<mxfile host="app.diagrams.net" modified="2020-11-10T13:50:33.138Z" agent="5.0 (Macintosh; Intel Mac OS X 10_15_4) AppleWebKit/537.36 (KHTML, like Gecko) Chrome/86.0.4240.183 Safari/537.36" etag="HWP-xKrZ2SEbwpkYcT3g" version="13.9.1" type="github">
  <diagram id="NxwStEnsrJWZOlORe4x4" name="Page-1">
    <mxGraphModel dx="1426" dy="737" grid="1" gridSize="10" guides="1" tooltips="1" connect="1" arrows="1" fold="1" page="1" pageScale="1" pageWidth="827" pageHeight="1169" math="0" shadow="0">
      <root>
        <mxCell id="0" />
        <mxCell id="1" parent="0" />
        <mxCell id="yYUWTIi6ubNjAFsflyOn-11" value="&lt;p style=&quot;margin: 0px ; margin-top: 4px ; text-align: center&quot;&gt;SensorsAnalyticsSDK&lt;br&gt;&lt;/p&gt;&lt;hr size=&quot;1&quot;&gt;&lt;p style=&quot;margin: 0px ; margin-left: 4px&quot;&gt;&lt;br&gt;&lt;/p&gt;&lt;hr size=&quot;1&quot;&gt;&lt;p style=&quot;margin: 0px ; margin-left: 4px&quot;&gt;+ (void)startWithConfigOptions:(SAConfigOptions *)configOptionsa&lt;br&gt;&lt;/p&gt;&lt;p style=&quot;margin: 0px ; margin-left: 4px&quot;&gt;&lt;br&gt;&lt;/p&gt;&lt;p style=&quot;margin: 0px ; margin-left: 4px&quot;&gt;- (instancetype)initWithConfigOptions:(nonnull SAConfigOptions *)configOptions&amp;nbsp;&lt;/p&gt;&lt;p style=&quot;margin: 0px ; margin-left: 4px&quot;&gt;debugMode:(SensorsAnalyticsDebugMode)debugMode&amp;nbsp;&lt;br&gt;&lt;/p&gt;&lt;p style=&quot;margin: 0px ; margin-left: 4px&quot;&gt;&lt;br&gt;&lt;/p&gt;&lt;p class=&quot;p1&quot; style=&quot;margin: 0px ; font-stretch: normal ; line-height: normal&quot;&gt;&lt;font style=&quot;font-size: 12px ; background-color: rgb(255 , 255 , 255)&quot;&gt;&lt;span class=&quot;s1&quot;&gt;- (&lt;/span&gt;&lt;span class=&quot;s2&quot;&gt;void&lt;/span&gt;&lt;span class=&quot;s1&quot;&gt;)&lt;/span&gt;setUpListeners&lt;font style=&quot;font-size: 12px&quot;&gt;;&lt;/font&gt;&lt;/font&gt;&lt;/p&gt;&lt;p class=&quot;p1&quot; style=&quot;margin: 0px ; font-stretch: normal ; line-height: normal&quot;&gt;&lt;span class=&quot;s1&quot; style=&quot;background-color: rgb(255 , 255 , 255)&quot;&gt;&lt;font style=&quot;font-size: 12px&quot;&gt;&lt;br&gt;&lt;/font&gt;&lt;/span&gt;&lt;/p&gt;&lt;p class=&quot;p1&quot; style=&quot;margin: 0px ; font-stretch: normal ; line-height: normal&quot;&gt;&lt;font style=&quot;font-size: 12px&quot;&gt;&lt;span class=&quot;s1&quot; style=&quot;background-color: rgb(255 , 255 , 255)&quot;&gt;&lt;/span&gt;&lt;/font&gt;&lt;/p&gt;&lt;p class=&quot;p1&quot; style=&quot;margin: 0px ; font-stretch: normal ; line-height: normal&quot;&gt;&lt;font style=&quot;font-size: 12px ; background-color: rgb(255 , 255 , 255)&quot;&gt;&lt;span class=&quot;s1&quot;&gt;- (&lt;/span&gt;&lt;span class=&quot;s2&quot;&gt;void&lt;/span&gt;&lt;span class=&quot;s1&quot;&gt;)&lt;/span&gt;_enableAutoTrack&lt;font style=&quot;font-size: 12px&quot;&gt;&amp;nbsp;{&lt;/font&gt;&lt;/font&gt;&lt;/p&gt;&lt;p class=&quot;p1&quot; style=&quot;margin: 0px ; font-stretch: normal ; line-height: normal&quot;&gt;&lt;font style=&quot;font-size: 12px ; background-color: rgb(255 , 255 , 255)&quot;&gt;…&lt;/font&gt;&lt;/p&gt;&lt;p class=&quot;p1&quot; style=&quot;margin: 0px ; font-stretch: normal ; line-height: normal&quot;&gt;&lt;font style=&quot;font-size: 12px ; background-color: rgb(255 , 255 , 255)&quot;&gt;&lt;span class=&quot;Apple-converted-space&quot;&gt;&amp;nbsp; &amp;nbsp;&amp;nbsp;&lt;/span&gt;&lt;span class=&quot;s1&quot;&gt;dispatch_once&lt;/span&gt;(&amp;amp;onceToken, ^{&lt;/font&gt;&lt;/p&gt;&lt;p class=&quot;p2&quot; style=&quot;margin: 0px ; font-stretch: normal ; line-height: normal&quot;&gt;&lt;font style=&quot;font-size: 12px ; background-color: rgb(255 , 255 , 255)&quot;&gt;&lt;span class=&quot;s2&quot;&gt;&amp;nbsp; &amp;nbsp; &amp;nbsp; &amp;nbsp; &lt;/span&gt;//$AppViewScreen&lt;/font&gt;&lt;/p&gt;&lt;p class=&quot;p1&quot; style=&quot;margin: 0px ; font-stretch: normal ; line-height: normal&quot;&gt;&lt;font style=&quot;font-size: 12px ; background-color: rgb(255 , 255 , 255)&quot;&gt;&lt;span class=&quot;Apple-converted-space&quot;&gt;&amp;nbsp; &amp;nbsp; &amp;nbsp; &amp;nbsp; &lt;/span&gt;[&lt;span class=&quot;s3&quot;&gt;UIViewController&lt;/span&gt; &lt;span class=&quot;s4&quot;&gt;sa_swizzleMethod&lt;/span&gt;:&lt;span class=&quot;s5&quot;&gt;@selector&lt;/span&gt;(viewDidAppear:)&amp;nbsp;&lt;/font&gt;&lt;/p&gt;&lt;p class=&quot;p1&quot; style=&quot;margin: 0px ; font-stretch: normal ; line-height: normal&quot;&gt;&lt;font style=&quot;font-size: 12px ; background-color: rgb(255 , 255 , 255)&quot;&gt;&lt;span class=&quot;s4&quot;&gt;withMethod&lt;/span&gt;:&lt;span class=&quot;s5&quot;&gt;@selector&lt;/span&gt;(sa_autotrack_viewDidAppear:) &lt;span class=&quot;s4&quot;&gt;error&lt;/span&gt;:&lt;span class=&quot;s5&quot;&gt;NULL&lt;/span&gt;];&lt;/font&gt;&lt;/p&gt;&lt;p class=&quot;p1&quot; style=&quot;margin: 0px ; font-stretch: normal ; line-height: normal&quot;&gt;&lt;font style=&quot;font-size: 12px ; background-color: rgb(255 , 255 , 255)&quot;&gt;&lt;span class=&quot;Apple-converted-space&quot;&gt;&amp;nbsp; &amp;nbsp; &amp;nbsp; &amp;nbsp; &lt;/span&gt;&lt;span class=&quot;s3&quot;&gt;NSError&lt;/span&gt; *error = &lt;span class=&quot;s5&quot;&gt;NULL&lt;/span&gt;;&lt;/font&gt;&lt;/p&gt;&lt;p class=&quot;p2&quot; style=&quot;margin: 0px ; font-stretch: normal ; line-height: normal&quot;&gt;&lt;font style=&quot;font-size: 12px ; background-color: rgb(255 , 255 , 255)&quot;&gt;&lt;span class=&quot;s2&quot;&gt;&amp;nbsp; &amp;nbsp; &amp;nbsp; &amp;nbsp; &lt;/span&gt;//$AppClick&lt;/font&gt;&lt;/p&gt;&lt;p class=&quot;p2&quot; style=&quot;margin: 0px ; font-stretch: normal ; line-height: normal&quot;&gt;&lt;font style=&quot;font-size: 12px ; background-color: rgb(255 , 255 , 255)&quot;&gt;&lt;span class=&quot;s2&quot;&gt;&amp;nbsp; &amp;nbsp; &amp;nbsp; &amp;nbsp; &lt;/span&gt;// Actions &amp;amp; Events&lt;/font&gt;&lt;/p&gt;&lt;p class=&quot;p1&quot; style=&quot;margin: 0px ; font-stretch: normal ; line-height: normal&quot;&gt;&lt;font style=&quot;font-size: 12px ; background-color: rgb(255 , 255 , 255)&quot;&gt;&lt;span class=&quot;Apple-converted-space&quot;&gt;&amp;nbsp; &amp;nbsp; &amp;nbsp; &amp;nbsp; &lt;/span&gt;[&lt;span class=&quot;s3&quot;&gt;UIApplication&lt;/span&gt; &lt;span class=&quot;s4&quot;&gt;sa_swizzleMethod&lt;/span&gt;:&lt;span class=&quot;s5&quot;&gt;@selector&lt;/span&gt;(sendAction:to:from:forEvent:)&lt;/font&gt;&lt;/p&gt;&lt;p class=&quot;p1&quot; style=&quot;margin: 0px ; font-stretch: normal ; line-height: normal&quot;&gt;&lt;font style=&quot;font-size: 12px ; background-color: rgb(255 , 255 , 255)&quot;&gt;&lt;span class=&quot;Apple-converted-space&quot;&gt;&amp;nbsp;&amp;nbsp; &amp;nbsp; &amp;nbsp; &amp;nbsp; &amp;nbsp; &amp;nbsp; &amp;nbsp; &amp;nbsp; &amp;nbsp; &amp;nbsp; &amp;nbsp; &amp;nbsp; &amp;nbsp; &amp;nbsp; &lt;/span&gt;&lt;span class=&quot;s4&quot;&gt;withMethod&lt;/span&gt;:&lt;span class=&quot;s5&quot;&gt;@selector&lt;/span&gt;(&lt;font color=&quot;#ff0000&quot;&gt;sa_sendAction:to:from:forEvent:&lt;/font&gt;)&lt;/font&gt;&lt;/p&gt;&lt;p class=&quot;p1&quot; style=&quot;margin: 0px ; font-stretch: normal ; line-height: normal&quot;&gt;&lt;font style=&quot;font-size: 12px ; background-color: rgb(255 , 255 , 255)&quot;&gt;&lt;span class=&quot;Apple-converted-space&quot;&gt;&amp;nbsp; &amp;nbsp; &amp;nbsp; &amp;nbsp; &amp;nbsp; &amp;nbsp; &amp;nbsp; &amp;nbsp; &amp;nbsp; &amp;nbsp; &amp;nbsp; &amp;nbsp; &amp;nbsp; &amp;nbsp; &amp;nbsp; &amp;nbsp; &amp;nbsp; &lt;/span&gt;&lt;span class=&quot;s4&quot;&gt;error&lt;/span&gt;:&amp;amp;error];&lt;/font&gt;&lt;/p&gt;&lt;p class=&quot;p1&quot; style=&quot;margin: 0px ; font-stretch: normal ; line-height: normal&quot;&gt;&lt;font style=&quot;font-size: 12px ; background-color: rgb(255 , 255 , 255)&quot;&gt;&lt;span class=&quot;Apple-converted-space&quot;&gt;&amp;nbsp; &amp;nbsp; &amp;nbsp; &amp;nbsp; &lt;/span&gt;&lt;span class=&quot;s5&quot;&gt;if&lt;/span&gt; (error) {&lt;/font&gt;&lt;/p&gt;&lt;p class=&quot;p3&quot; style=&quot;margin: 0px ; font-stretch: normal ; line-height: normal&quot;&gt;&lt;font style=&quot;font-size: 12px ; background-color: rgb(255 , 255 , 255)&quot;&gt;&lt;span class=&quot;s2&quot;&gt;&amp;nbsp; &amp;nbsp; &amp;nbsp; &amp;nbsp; &amp;nbsp; &amp;nbsp; &lt;/span&gt;&lt;span class=&quot;s1&quot;&gt;SALogError&lt;/span&gt;&lt;span class=&quot;s2&quot;&gt;(&lt;/span&gt;@&quot;Failed to swizzle sendAction:to:forEvent: on UIAppplication. Details: %@&quot;&lt;span class=&quot;s2&quot;&gt;, error);&lt;/span&gt;&lt;/font&gt;&lt;/p&gt;&lt;p class=&quot;p1&quot; style=&quot;margin: 0px ; font-stretch: normal ; line-height: normal&quot;&gt;&lt;font style=&quot;font-size: 12px ; background-color: rgb(255 , 255 , 255)&quot;&gt;&lt;span class=&quot;Apple-converted-space&quot;&gt;&amp;nbsp; &amp;nbsp; &amp;nbsp; &amp;nbsp; &amp;nbsp; &amp;nbsp; &lt;/span&gt;error = &lt;span class=&quot;s5&quot;&gt;NULL&lt;/span&gt;;&lt;/font&gt;&lt;/p&gt;&lt;p class=&quot;p1&quot; style=&quot;margin: 0px ; font-stretch: normal ; line-height: normal&quot;&gt;&lt;font style=&quot;font-size: 12px ; background-color: rgb(255 , 255 , 255)&quot;&gt;&lt;span class=&quot;Apple-converted-space&quot;&gt;&amp;nbsp; &amp;nbsp; &amp;nbsp; &amp;nbsp; &lt;/span&gt;}&lt;/font&gt;&lt;/p&gt;&lt;p class=&quot;p1&quot; style=&quot;margin: 0px ; font-stretch: normal ; line-height: normal&quot;&gt;&lt;font style=&quot;font-size: 12px ; background-color: rgb(255 , 255 , 255)&quot;&gt;&lt;span class=&quot;Apple-converted-space&quot;&gt;&amp;nbsp; &amp;nbsp; &lt;/span&gt;});&lt;/font&gt;&lt;/p&gt;&lt;p class=&quot;p1&quot; style=&quot;margin: 0px ; font-stretch: normal ; line-height: normal&quot;&gt;&lt;font style=&quot;font-size: 12px ; background-color: rgb(255 , 255 , 255)&quot;&gt;…&lt;/font&gt;&lt;/p&gt;&lt;p class=&quot;p1&quot; style=&quot;margin: 0px ; font-stretch: normal ; line-height: normal&quot;&gt;&lt;font style=&quot;font-size: 12px ; background-color: rgb(255 , 255 , 255)&quot;&gt;&lt;br&gt;&lt;/font&gt;&lt;/p&gt;&lt;p class=&quot;p1&quot; style=&quot;margin: 0px ; font-stretch: normal ; line-height: normal&quot;&gt;&lt;font style=&quot;font-size: 12px ; background-color: rgb(255 , 255 , 255)&quot;&gt;}&lt;/font&gt;&lt;/p&gt;&lt;p class=&quot;p1&quot; style=&quot;margin: 0px ; font-stretch: normal ; line-height: normal&quot;&gt;&lt;font style=&quot;font-size: 12px ; background-color: rgb(255 , 255 , 255)&quot;&gt;&lt;br&gt;&lt;/font&gt;&lt;/p&gt;&lt;p class=&quot;p1&quot; style=&quot;margin: 0px ; font-stretch: normal ; line-height: normal&quot;&gt;&lt;font style=&quot;font-size: 12px ; background-color: rgb(255 , 255 , 255)&quot;&gt;&lt;span class=&quot;s1&quot;&gt;- (&lt;/span&gt;&lt;span class=&quot;s2&quot;&gt;void&lt;/span&gt;&lt;span class=&quot;s1&quot;&gt;)&lt;/span&gt;sa_autotrack_viewDidAppear&lt;span class=&quot;s1&quot;&gt;:(&lt;/span&gt;&lt;span class=&quot;s2&quot;&gt;BOOL&lt;/span&gt;&lt;span class=&quot;s1&quot;&gt;)animated {&lt;/span&gt;&lt;/font&gt;&lt;/p&gt;&lt;p class=&quot;p1&quot; style=&quot;margin: 0px ; font-stretch: normal ; line-height: normal&quot;&gt;&lt;font style=&quot;font-size: 12px ; background-color: rgb(255 , 255 , 255)&quot;&gt;……&lt;/font&gt;&lt;/p&gt;&lt;p class=&quot;p1&quot; style=&quot;margin: 0px ; font-stretch: normal ; line-height: normal&quot;&gt;&lt;font style=&quot;font-size: 12px ; background-color: rgb(255 , 255 , 255)&quot;&gt;&lt;span class=&quot;Apple-converted-space&quot;&gt;&amp;nbsp; &amp;nbsp; &amp;nbsp; &amp;nbsp; &amp;nbsp; &amp;nbsp;&amp;nbsp;&lt;/span&gt;&lt;span class=&quot;s1&quot;&gt;if&lt;/span&gt; ([&lt;span class=&quot;s1&quot;&gt;self&lt;/span&gt; &lt;span class=&quot;s2&quot;&gt;respondsToSelector&lt;/span&gt;:&lt;span class=&quot;s1&quot;&gt;@selector&lt;/span&gt;(tableView:didSelectRowAtIndexPath:)]) {&lt;/font&gt;&lt;/p&gt;&lt;p class=&quot;p1&quot; style=&quot;margin: 0px ; font-stretch: normal ; line-height: normal&quot;&gt;&lt;font style=&quot;font-size: 12px ; background-color: rgb(255 , 255 , 255)&quot;&gt;&lt;span class=&quot;Apple-converted-space&quot;&gt;&amp;nbsp; &amp;nbsp; &amp;nbsp; &amp;nbsp; &amp;nbsp; &amp;nbsp; &amp;nbsp; &amp;nbsp; &lt;/span&gt;[&lt;span class=&quot;s3&quot;&gt;SASwizzler&lt;/span&gt; &lt;span class=&quot;s3&quot;&gt;swizzleSelector&lt;/span&gt;:&lt;span class=&quot;s1&quot;&gt;@selector&lt;/span&gt;(tableView:didSelectRowAtIndexPath:)&amp;nbsp;&lt;/font&gt;&lt;/p&gt;&lt;p class=&quot;p1&quot; style=&quot;margin: 0px ; font-stretch: normal ; line-height: normal&quot;&gt;&lt;font style=&quot;font-size: 12px ; background-color: rgb(255 , 255 , 255)&quot;&gt;&lt;span class=&quot;s3&quot;&gt;onClass&lt;/span&gt;:&lt;span class=&quot;s1&quot;&gt;self&lt;/span&gt;.&lt;span class=&quot;s2&quot;&gt;class&lt;/span&gt; &lt;span class=&quot;s3&quot;&gt;withBlock&lt;/span&gt;:tableViewBlock&amp;nbsp;&lt;/font&gt;&lt;/p&gt;&lt;p class=&quot;p1&quot; style=&quot;margin: 0px ; font-stretch: normal ; line-height: normal&quot;&gt;&lt;font style=&quot;font-size: 12px ; background-color: rgb(255 , 255 , 255)&quot;&gt;&lt;span class=&quot;s3&quot;&gt;named&lt;/span&gt;:[&lt;span class=&quot;s2&quot;&gt;NSString&lt;/span&gt; &lt;span class=&quot;s2&quot;&gt;stringWithFormat&lt;/span&gt;:&lt;span class=&quot;s4&quot;&gt;@&quot;%@_%@&quot;&lt;/span&gt;, &lt;span class=&quot;s2&quot;&gt;NSStringFromClass&lt;/span&gt;(&lt;span class=&quot;s1&quot;&gt;self&lt;/span&gt;.&lt;span class=&quot;s2&quot;&gt;class&lt;/span&gt;), &lt;span class=&quot;s4&quot;&gt;@&quot;UITableView_AutoTrack&quot;&lt;/span&gt;]];&lt;/font&gt;&lt;/p&gt;&lt;p class=&quot;p1&quot; style=&quot;margin: 0px ; font-stretch: normal ; line-height: normal&quot;&gt;&lt;font style=&quot;font-size: 12px ; background-color: rgb(255 , 255 , 255)&quot;&gt;&lt;span class=&quot;Apple-converted-space&quot;&gt;&amp;nbsp; &amp;nbsp; &amp;nbsp; &amp;nbsp; &amp;nbsp; &amp;nbsp; &lt;/span&gt;}&lt;/font&gt;&lt;/p&gt;&lt;p class=&quot;p1&quot; style=&quot;margin: 0px ; font-stretch: normal ; line-height: normal&quot;&gt;&lt;font style=&quot;font-size: 12px ; background-color: rgb(255 , 255 , 255)&quot;&gt;&lt;br&gt;&lt;/font&gt;&lt;/p&gt;&lt;p class=&quot;p1&quot; style=&quot;margin: 0px ; font-stretch: normal ; line-height: normal&quot;&gt;&lt;font style=&quot;font-size: 12px ; background-color: rgb(255 , 255 , 255)&quot;&gt;……&lt;/font&gt;&lt;/p&gt;&lt;p class=&quot;p1&quot; style=&quot;margin: 0px ; font-stretch: normal ; line-height: normal&quot;&gt;&lt;font style=&quot;font-size: 12px ; background-color: rgb(255 , 255 , 255)&quot;&gt;&lt;span class=&quot;Apple-converted-space&quot;&gt;&amp;nbsp; &amp;nbsp; &amp;nbsp; &amp;nbsp; &amp;nbsp; &amp;nbsp;&amp;nbsp;&lt;/span&gt;&lt;span class=&quot;s1&quot;&gt;if&lt;/span&gt; ([&lt;span class=&quot;s1&quot;&gt;self&lt;/span&gt; &lt;span class=&quot;s2&quot;&gt;respondsToSelector&lt;/span&gt;:&lt;span class=&quot;s1&quot;&gt;@selector&lt;/span&gt;(collectionView:didSelectItemAtIndexPath:)]) {&lt;/font&gt;&lt;/p&gt;&lt;p class=&quot;p1&quot; style=&quot;margin: 0px ; font-stretch: normal ; line-height: normal&quot;&gt;&lt;font style=&quot;font-size: 12px ; background-color: rgb(255 , 255 , 255)&quot;&gt;&lt;span class=&quot;Apple-converted-space&quot;&gt;&amp;nbsp; &amp;nbsp; &amp;nbsp; &amp;nbsp; &amp;nbsp; &amp;nbsp; &amp;nbsp; &amp;nbsp; &lt;/span&gt;[&lt;span class=&quot;s3&quot;&gt;SASwizzler&lt;/span&gt; &lt;span class=&quot;s3&quot;&gt;swizzleSelector&lt;/span&gt;:&lt;span class=&quot;s1&quot;&gt;@selector&lt;/span&gt;(collectionView:didSelectItemAtIndexPath:)&amp;nbsp;&lt;/font&gt;&lt;/p&gt;&lt;p class=&quot;p1&quot; style=&quot;margin: 0px ; font-stretch: normal ; line-height: normal&quot;&gt;&lt;font style=&quot;font-size: 12px ; background-color: rgb(255 , 255 , 255)&quot;&gt;&lt;span class=&quot;s3&quot;&gt;onClass&lt;/span&gt;:&lt;span class=&quot;s1&quot;&gt;self&lt;/span&gt;.&lt;span class=&quot;s2&quot;&gt;class&lt;/span&gt; &lt;span class=&quot;s3&quot;&gt;withBlock&lt;/span&gt;:collectionViewBlock&amp;nbsp;&lt;/font&gt;&lt;/p&gt;&lt;p class=&quot;p1&quot; style=&quot;margin: 0px ; font-stretch: normal ; line-height: normal&quot;&gt;&lt;font style=&quot;font-size: 12px ; background-color: rgb(255 , 255 , 255)&quot;&gt;&lt;span class=&quot;s3&quot;&gt;named&lt;/span&gt;:[&lt;span class=&quot;s2&quot;&gt;NSString&lt;/span&gt; &lt;span class=&quot;s2&quot;&gt;stringWithFormat&lt;/span&gt;:&lt;span class=&quot;s4&quot;&gt;@&quot;%@_%@&quot;&lt;/span&gt;, &lt;span class=&quot;s2&quot;&gt;NSStringFromClass&lt;/span&gt;(&lt;span class=&quot;s1&quot;&gt;self&lt;/span&gt;.&lt;span class=&quot;s2&quot;&gt;class&lt;/span&gt;), &lt;span class=&quot;s4&quot;&gt;@&quot;UICollectionView_AutoTrack&quot;&lt;/span&gt;]];&lt;/font&gt;&lt;/p&gt;&lt;p class=&quot;p1&quot; style=&quot;margin: 0px ; font-stretch: normal ; line-height: normal&quot;&gt;&lt;font style=&quot;font-size: 12px ; background-color: rgb(255 , 255 , 255)&quot;&gt;&lt;span class=&quot;Apple-converted-space&quot;&gt;&amp;nbsp; &amp;nbsp; &amp;nbsp; &amp;nbsp; &amp;nbsp; &amp;nbsp; &lt;/span&gt;}&lt;/font&gt;&lt;/p&gt;&lt;p class=&quot;p1&quot; style=&quot;margin: 0px ; font-stretch: normal ; line-height: normal&quot;&gt;&lt;font style=&quot;font-size: 12px ; background-color: rgb(255 , 255 , 255)&quot;&gt;……&lt;/font&gt;&lt;/p&gt;&lt;p class=&quot;p1&quot; style=&quot;margin: 0px ; font-stretch: normal ; line-height: normal&quot;&gt;&lt;span class=&quot;s1&quot; style=&quot;background-color: rgb(255 , 255 , 255)&quot;&gt;&lt;font style=&quot;font-size: 12px&quot;&gt;}&lt;/font&gt;&lt;/span&gt;&lt;/p&gt;&lt;p class=&quot;p1&quot; style=&quot;margin: 0px ; font-stretch: normal ; line-height: normal ; font-family: &amp;#34;menlo&amp;#34;&quot;&gt;&lt;br&gt;&lt;/p&gt;" style="verticalAlign=top;align=left;overflow=fill;fontSize=12;fontFamily=Helvetica;html=1;" vertex="1" parent="1">
          <mxGeometry x="140" y="90" width="630" height="680" as="geometry" />
        </mxCell>
        <mxCell id="yYUWTIi6ubNjAFsflyOn-12" value="&lt;p style=&quot;margin: 0px ; margin-top: 4px ; text-align: center&quot;&gt;SAConfigOptions&lt;br&gt;&lt;/p&gt;&lt;hr size=&quot;1&quot;&gt;&lt;p style=&quot;margin: 0px 0px 0px 4px&quot;&gt;&lt;font style=&quot;font-size: 12px ; background-color: rgb(255 , 255 , 255)&quot;&gt;- autoTrackEventType: enum&lt;br&gt;&lt;/font&gt;&lt;/p&gt;&lt;p style=&quot;margin: 0px 0px 0px 4px&quot;&gt;&lt;font style=&quot;font-size: 12px ; background-color: rgb(255 , 255 , 255)&quot;&gt;-&amp;nbsp;enableVisualizedAutoTrack: Bool&lt;/font&gt;&lt;/p&gt;&lt;p style=&quot;margin: 0px 0px 0px 4px&quot;&gt;&lt;font style=&quot;font-size: 12px ; background-color: rgb(255 , 255 , 255)&quot;&gt;-&amp;nbsp;&lt;span style=&quot;font-family: &amp;#34;menlo&amp;#34;&quot;&gt;enableHeatMap:Bool&lt;/span&gt;&lt;/font&gt;&lt;/p&gt;&lt;p style=&quot;margin: 0px 0px 0px 4px&quot;&gt;&lt;font style=&quot;font-size: 12px ; background-color: rgb(255 , 255 , 255)&quot;&gt;&lt;span style=&quot;font-family: &amp;#34;menlo&amp;#34;&quot;&gt;-&lt;/span&gt;&lt;span style=&quot;font-family: &amp;#34;menlo&amp;#34;&quot;&gt;remoteConfigURL:String&lt;/span&gt;&lt;/font&gt;&lt;/p&gt;&lt;p style=&quot;margin: 0px 0px 0px 4px&quot;&gt;&lt;font style=&quot;font-size: 12px ; background-color: rgb(255 , 255 , 255)&quot;&gt;&lt;span style=&quot;font-family: &amp;#34;menlo&amp;#34;&quot;&gt;-&lt;/span&gt;&lt;span style=&quot;font-family: &amp;#34;menlo&amp;#34;&quot;&gt;flushBeforeEnterBackground: Bool&lt;/span&gt;&lt;span style=&quot;font-family: &amp;#34;menlo&amp;#34;&quot;&gt;&amp;nbsp;&lt;/span&gt;&lt;/font&gt;&lt;/p&gt;&lt;hr size=&quot;1&quot;&gt;&lt;p style=&quot;margin: 0px ; margin-left: 4px&quot;&gt;&lt;br&gt;&lt;/p&gt;" style="verticalAlign=top;align=left;overflow=fill;fontSize=12;fontFamily=Helvetica;html=1;" vertex="1" parent="1">
          <mxGeometry x="827" y="80" width="390" height="120" as="geometry" />
        </mxCell>
        <mxCell id="yYUWTIi6ubNjAFsflyOn-17" value="Use" style="endArrow=open;endSize=12;dashed=1;html=1;entryX=-0.008;entryY=0.567;entryDx=0;entryDy=0;entryPerimeter=0;exitX=1.004;exitY=0.082;exitDx=0;exitDy=0;exitPerimeter=0;" edge="1" parent="1" source="yYUWTIi6ubNjAFsflyOn-11" target="yYUWTIi6ubNjAFsflyOn-12">
          <mxGeometry width="160" relative="1" as="geometry">
            <mxPoint x="410" y="170" as="sourcePoint" />
            <mxPoint x="570" y="160" as="targetPoint" />
          </mxGeometry>
        </mxCell>
        <mxCell id="yYUWTIi6ubNjAFsflyOn-22" value="" style="html=1;shadow=0;dashed=0;align=center;verticalAlign=middle;shape=mxgraph.arrows2.arrow;dy=0.6;dx=40;notch=15;" vertex="1" parent="1">
          <mxGeometry x="70" y="145" width="70" height="20" as="geometry" />
        </mxCell>
        <mxCell id="yYUWTIi6ubNjAFsflyOn-23" value="" style="html=1;shadow=0;dashed=0;align=center;verticalAlign=middle;shape=mxgraph.arrows2.arrow;dy=0.67;dx=20;notch=0;direction=south;" vertex="1" parent="1">
          <mxGeometry x="70" y="260" width="30" height="410" as="geometry" />
        </mxCell>
        <mxCell id="yYUWTIi6ubNjAFsflyOn-24" value="appViewEvent" style="text;html=1;strokeColor=none;fillColor=none;align=center;verticalAlign=middle;whiteSpace=wrap;rounded=0;fontColor=#CC0000;" vertex="1" parent="1">
          <mxGeometry x="710" y="300" width="110" height="20" as="geometry" />
        </mxCell>
        <mxCell id="yYUWTIi6ubNjAFsflyOn-25" value="appClickEvent" style="text;html=1;strokeColor=none;fillColor=none;align=center;verticalAlign=middle;whiteSpace=wrap;rounded=0;fontColor=#CC0000;" vertex="1" parent="1">
          <mxGeometry x="710" y="380" width="110" height="20" as="geometry" />
        </mxCell>
        <mxCell id="yYUWTIi6ubNjAFsflyOn-27" value="appClickEvent组合控件" style="text;html=1;strokeColor=none;fillColor=none;align=center;verticalAlign=middle;whiteSpace=wrap;rounded=0;fontColor=#CC0000;" vertex="1" parent="1">
          <mxGeometry x="690" y="565" width="130" height="20" as="geometry" />
        </mxCell>
      </root>
    </mxGraphModel>
  </diagram>
</mxfile>
